<?xml version="1.0" standalone="no"?>
<!DOCTYPE svg PUBLIC "-//W3C//DTD SVG 20010904//EN"
 "http://www.w3.org/TR/2001/REC-SVG-20010904/DTD/svg10.dtd">
<svg version="1.0" xmlns="http://www.w3.org/2000/svg"
 width="260.000000pt" height="260.000000pt" viewBox="0 0 260.000000 260.000000"
 preserveAspectRatio="xMidYMid meet">
<metadata>
Created by potrace 1.14, written by Peter Selinger 2001-2017
</metadata>
<g transform="translate(0.000000,260.000000) scale(0.100000,-0.100000)"
fill="#000000" stroke="none">
<path d="M1196 2538 c-255 -34 -506 -164 -688 -356 -171 -181 -274 -387 -313
-626 -23 -144 -17 -333 16 -459 9 -36 12 -38 27 -24 28 25 117 56 177 61 31 2
58 6 61 9 2 2 -2 22 -10 45 -18 51 -14 170 7 230 83 223 343 321 559 211 61
-31 142 -120 169 -184 17 -42 27 -54 38 -49 78 34 130 46 186 40 109 -10 194
-69 247 -169 29 -55 33 -194 6 -243 l-17 -31 67 -5 c156 -11 281 -137 288
-291 2 -56 4 -60 41 -85 41 -27 81 -67 99 -98 10 -17 16 -14 68 41 128 132
260 376 291 536 22 111 27 158 30 251 1 58 -2 130 -6 160 -5 29 -11 69 -14 89
-3 20 -14 65 -24 100 -163 567 -718 927 -1305 847z"/>
<path d="M773 1620 c-70 -14 -115 -41 -175 -102 -46 -46 -61 -70 -77 -120 -26
-84 -21 -174 13 -252 14 -32 26 -60 26 -62 0 -2 -35 -2 -77 0 -158 7 -277 -61
-341 -194 -23 -46 -27 -68 -27 -140 0 -73 4 -92 28 -138 39 -75 87 -124 154
-157 56 -28 64 -30 229 -33 l171 -4 24 34 c54 75 144 127 229 131 33 1 37 5
68 67 98 199 335 300 554 236 93 -27 203 -110 258 -195 13 -20 26 -24 79 -28
l64 -5 -8 49 c-14 93 -59 161 -138 205 -37 20 -55 23 -149 23 -60 0 -108 1
-108 2 0 1 16 29 36 62 102 171 10 366 -182 387 -62 7 -123 -11 -182 -52 l-47
-34 -21 68 c-20 67 -64 142 -101 172 -86 71 -199 101 -300 80z m179 -114 c71
-34 168 -170 153 -216 -10 -30 -33 -13 -65 49 -36 71 -70 103 -142 135 -55 24
-74 49 -45 59 15 5 53 -5 99 -27z"/>
<path d="M1337 844 c-31 -7 -72 -21 -90 -30 -90 -46 -176 -144 -203 -229 l-17
-54 -59 0 c-141 1 -243 -101 -242 -242 0 -77 31 -141 89 -185 70 -53 69 -53
625 -51 l515 2 51 27 c154 81 203 265 108 405 -59 87 -160 135 -267 127 -24
-2 -37 1 -37 9 -1 22 -69 106 -120 146 -94 75 -231 104 -353 75z m203 -116
c74 -23 131 -72 169 -143 l21 -40 -22 -10 c-15 -7 -23 -6 -26 3 -2 7 -21 34
-42 61 -41 52 -118 93 -176 93 -40 0 -62 21 -45 42 13 15 61 13 121 -6z"/>
</g>
</svg>
