<?xml version="1.0" standalone="no"?>
<!DOCTYPE svg PUBLIC "-//W3C//DTD SVG 20010904//EN"
 "http://www.w3.org/TR/2001/REC-SVG-20010904/DTD/svg10.dtd">
<svg version="1.0" xmlns="http://www.w3.org/2000/svg"
 width="4096.000000pt" height="4096.000000pt" viewBox="0 0 4096.000000 4096.000000"
 preserveAspectRatio="xMidYMid meet">
<metadata>
Created by potrace 1.14, written by Peter Selinger 2001-2017
</metadata>
<g transform="translate(0.000000,4096.000000) scale(0.100000,-0.100000)"
fill="#000000" stroke="none">
<path d="M16640 38400 l0 -2560 1280 0 1280 0 0 2560 0 2560 -1280 0 -1280 0
0 -2560z"/>
<path d="M29150 40954 c-230 -15 -367 -27 -505 -45 -1644 -203 -3154 -1049
-4200 -2354 -295 -368 -535 -745 -745 -1170 -353 -715 -555 -1434 -637 -2265
-15 -154 -18 -359 -22 -1696 l-6 -1521 -160 89 c-1203 673 -2561 1099 -3945
1237 -372 37 -566 46 -1025 46 -452 -1 -611 -8 -991 -45 -3225 -316 -6115
-2155 -7793 -4958 -768 -1285 -1245 -2732 -1391 -4226 -38 -388 -44 -537 -44
-1006 0 -469 6 -618 44 -1006 171 -1745 787 -3409 1798 -4854 771 -1102 1802
-2087 2922 -2792 547 -344 1116 -635 1695 -866 891 -356 1866 -590 2815 -676
373 -34 518 -40 960 -40 442 0 595 6 960 40 898 82 1819 296 2669 618 96 36
175 65 177 64 1 -2 -40 -77 -92 -168 -586 -1026 -959 -2172 -1099 -3377 -64
-551 -71 -1256 -19 -1828 104 -1155 395 -2193 895 -3195 347 -694 771 -1323
1308 -1935 150 -172 640 -659 813 -809 911 -791 1904 -1368 2998 -1741 1263
-430 2656 -568 4027 -399 1084 133 2178 483 3133 1001 607 329 1137 699 1685
1176 168 146 620 596 761 757 564 644 994 1282 1349 2005 1180 2400 1220 5219
108 7655 -408 893 -982 1744 -1646 2436 l-107 112 -3 9868 c-3 9294 -4 9879
-20 10039 -10 94 -29 249 -43 345 -176 1229 -711 2384 -1539 3325 -114 129
-431 446 -560 560 -757 667 -1662 1149 -2628 1400 -331 86 -695 148 -1047 180
-163 15 -726 27 -850 19z m556 -2564 c625 -48 1180 -223 1704 -536 605 -361
1122 -913 1440 -1535 220 -431 342 -831 407 -1329 17 -128 18 -680 23 -10320
l5 -10185 22 -85 c70 -278 181 -471 383 -665 475 -456 615 -608 873 -950 971
-1286 1416 -2917 1236 -4530 -189 -1698 -1032 -3225 -2374 -4298 -1435 -1148
-3309 -1616 -5165 -1292 -1562 273 -2989 1160 -3962 2463 -568 760 -951 1620
-1132 2547 -328 1677 -11 3367 891 4750 271 414 480 665 928 1110 352 350 401
407 477 560 44 88 83 195 111 305 l22 85 5 10190 c6 9537 7 10198 23 10320 65
493 183 880 398 1306 454 898 1263 1590 2234 1911 243 80 557 145 805 167 69
6 141 13 160 15 83 7 367 5 486 -4z m-11176 -7695 c1195 -99 2285 -448 3307
-1057 397 -237 811 -539 1156 -844 l47 -42 -1 -5713 0 -5714 -81 -70 c-1018
-880 -2200 -1469 -3478 -1734 -541 -112 -966 -154 -1550 -155 -401 0 -554 7
-879 44 -2096 239 -3992 1326 -5272 3025 -1148 1522 -1684 3424 -1503 5335
257 2735 1977 5134 4496 6273 856 387 1773 611 2738 667 215 12 797 4 1020
-15z"/>
<path d="M28160 22922 l0 -10358 -122 -48 c-273 -106 -591 -279 -835 -454
-341 -244 -649 -552 -890 -888 -325 -454 -547 -975 -648 -1519 -46 -252 -59
-401 -59 -695 0 -354 31 -621 110 -935 269 -1076 1011 -1999 2004 -2495 979
-489 2115 -541 3125 -143 722 284 1362 802 1790 1448 880 1326 855 3050 -63
4332 -197 274 -460 554 -712 756 -144 116 -386 281 -537 366 -128 72 -356 180
-490 232 l-113 43 0 10358 0 10358 -1280 0 -1280 0 0 -10358z"/>
<path d="M5245 35710 l-900 -900 1810 -1810 1810 -1810 905 905 905 905 -1805
1805 c-993 993 -1809 1805 -1815 1805 -6 0 -415 -405 -910 -900z"/>
<path d="M0 23040 l0 -1280 2560 0 2560 0 0 1280 0 1280 -2560 0 -2560 0 0
-1280z"/>
<path d="M6155 13080 l-1810 -1810 900 -900 c495 -495 904 -900 910 -900 6 0
822 812 1815 1805 l1805 1805 -905 905 -905 905 -1810 -1810z"/>
<path d="M16640 7680 l0 -2560 1280 0 1280 0 0 2560 0 2560 -1280 0 -1280 0 0
-2560z"/>
</g>
</svg>
